<?xml version="1.0" encoding="utf-8"?>
<!-- Generator: Adobe Illustrator 26.2.1, SVG Export Plug-In . SVG Version: 6.00 Build 0)  -->
<svg version="1.1" id="b0f37409-1478-41af-8b35-df197d1f82fa"
	 xmlns="http://www.w3.org/2000/svg" xmlns:xlink="http://www.w3.org/1999/xlink" x="0px" y="0px" viewBox="0 0 800 370.7"
	 style="enable-background:new 0 0 800 370.7;" xml:space="preserve">
<style type="text/css">
	.st0{fill:#FFFFFF;}
	.st1{fill:#FDB933;}
	.st2{fill-rule:evenodd;clip-rule:evenodd;fill:#FDB933;}
</style>
<path class="st0" d="M452.2,367.1V317c0-7.9-1-13.4-3-16.4c-2-3-5.4-4.6-10.3-4.6c-6,0-10.3,2.1-12.7,6.3
	c-2.4,4.2-3.5,12.8-3.5,25.9v38.9h-31.3V317c0-8-0.9-13.6-2.9-16.5s-5.3-4.5-10.1-4.5c-6,0-10.3,2.1-12.7,6.2s-3.7,12.8-3.7,26v38.9
	h-31.5v-91.8h31.9v13.3c3.8-6.5,8.2-8.6,13.2-11.7c5.3-3.2,11.5-4.8,17.7-4.6c7.5,0,13.6,1.4,18.3,4.3c4.8,3,8.4,7.6,10.2,13
	c3.2-5.4,7.7-9.9,13.1-13c5.6-3,11.9-4.5,18.2-4.3c5-0.1,9.9,0.9,14.5,2.8c4.1,1.8,7.7,4.7,10.4,8.3c2.3,3,3.9,6.5,4.8,10.2
	c1,3.9,1.4,10.2,1.4,18.9v54.6L452.2,367.1z"/>
<path class="st0" d="M293.4,275.3v13.8c-3.5-6.1-7.8-9.4-12.8-12.3c-5.5-3.1-11.7-4.6-17.9-4.5c-13,0-23.3,4.4-30.9,13.2
	c-7.7,8.8-11.5,20.7-11.5,35.7s3.7,27.1,11,36s17.1,13.4,29.4,13.4c6.5,0.2,13-1.4,18.7-4.4c5.3-3,10.1-6.3,14.3-12.7v13.5h29.9
	v-91.8H293.4z M287.8,338.1c-3.8,4.1-7.7,6.2-14.3,6.2s-11.8-2-15.6-6.2s-5.7-9.8-5.7-16.9s1.9-12.9,5.7-17s9-6.2,15.6-6.2
	s10.5,2.1,14.3,6.3s5.7,9.8,5.7,17S291.6,334,287.8,338.1"/>
<path class="st0" d="M211.9,302.5c-2.6-6.1-6.5-11.6-11.3-16.1c-4.7-4.6-10.3-8.2-16.5-10.6c-12.8-4.7-26.9-4.7-39.7,0
	c-25.2,9.7-37.8,38-28.1,63.2c0.2,0.5,0.4,0.9,0.6,1.4c2.6,6,6.3,11.4,11.1,15.9c4.7,4.7,10.4,8.3,16.5,10.7
	c12.7,4.9,26.7,4.9,39.4,0c6.2-2.5,11.9-6.1,16.7-10.7c4.8-4.5,8.6-10,11.2-16c2.6-5.9,3.9-12.4,3.9-18.9
	C215.8,315,214.5,308.5,211.9,302.5 M178.4,337.7c-3.4,3.9-8.1,5.9-14.1,5.9c-6,0-10.7-2-14.1-5.9s-5.1-9.3-5.1-16.2
	s1.7-12.2,5.1-16.2s8.1-5.9,14-5.9s10.6,2,14,5.9s5.2,9.3,5.2,16.2S181.8,333.7,178.4,337.7"/>
<path class="st0" d="M45.9,367.1v-91.8h30.5v19c3.2-7.9,7.5-11.2,12.9-15.1s12.1-5.9,19.8-5.9c1.3,0,2.6,0,3.9,0.1s2.6,0.3,4,0.5
	l-3.2,29.4c-1.9-0.6-3.8-1.1-5.7-1.4c-1.8-0.3-3.6-0.4-5.5-0.4c-7.9,0-13.9,2.4-18.2,7.2c-4.3,4.8-6.4,11.6-6.4,20.5v38L45.9,367.1z
	"/>
<path class="st1" d="M800,326.1c0-16.7-4.4-29.8-13.2-39.4s-20.8-14.4-36-14.4c-14.8,0-27,4.7-36.7,14.2s-14.5,21.4-14.5,35.7
	c0,14.6,4.8,26.3,14.5,35.2c9.7,8.9,22.5,13.3,38.6,13.3c10.7,0,19.8-1.9,27.2-5.8s12.5-9.2,15.5-16.3l-24.3-9.8
	c-1.6,3.5-4.3,6.4-7.7,8.2c-3.9,2-8.1,2.9-12.5,2.8c-6.5,0-11.6-1.9-15.2-5.8s-5.4-9.3-5.5-16.4H800V326.1z M730.9,309.3
	c1.1-5.8,3.2-10.1,6.2-13s7.3-4.3,12.7-4.3c4.6-0.1,9.1,1.6,12.4,4.8c3.4,3.3,5.6,7.8,5.9,12.5H730.9z"/>
<path class="st1" d="M696.3,326.1c0-16.7-4.4-29.8-13.2-39.4c-8.8-9.6-20.8-14.4-36-14.4c-14.8,0-27,4.7-36.7,14.2
	c-9.7,9.5-14.5,21.4-14.5,35.7c0,14.6,4.8,26.3,14.5,35.2s22.5,13.3,38.5,13.3c10.7,0,19.8-1.9,27.2-5.8s12.5-9.2,15.4-16.3
	l-24.3-9.8c-1.6,3.5-4.3,6.4-7.7,8.2c-3.9,2-8.1,2.9-12.5,2.8c-6.5,0-11.6-1.9-15.2-5.8c-3.6-3.9-5.4-9.3-5.5-16.4h69.8L696.3,326.1
	z M627.2,309.3c1-5.8,3.1-10.1,6.2-13s7.4-4.3,12.6-4.3c4.6-0.1,9.1,1.6,12.4,4.8c3.5,3.3,5.6,7.8,6,12.5H627.2z"/>
<path class="st1" d="M580.9,285.8c-7.6-9-17.6-13.5-29.8-13.5c-7.8,0-14.2,1.4-19,4.2s-8.3,6.2-12.1,12.7c0.3-1.9,0-63.1,0-63.1
	h-30.9v141h29.8v-12.3c4.2,6.2,8.8,8.1,14,11.2c5.2,3.1,11.1,4.7,17.2,4.6c12.8,0,23.1-4.5,30.8-13.4s11.5-20.9,11.5-36
	C592.3,306.7,588.5,294.8,580.9,285.8 M554.4,338.3c-3.7,4.1-8.9,6.2-15.5,6.2s-10.4-2.1-14.1-6.2s-5.6-9.8-5.6-16.9
	s1.9-12.8,5.6-16.9s7.6-6.2,14.1-6.2s11.7,2,15.5,6.2s5.6,9.8,5.6,16.9S558.1,334.2,554.4,338.3"/>
<path class="st2" d="M248,147.4L248,147.4c10.9,3.1,23.8,20.3,24.8,37.5l48.6,27l-55.2-5.8c-7.8,10.5-21.5,18.2-35.5,21.7
	C243,207.6,252.1,183.6,248,147.4"/>
<path class="st2" d="M194.6,129.3L194.6,129.3c9.1-0.6,23.3,1.4,28.8,5.4c5.3,29,1.3,66.8-24.3,94.3c-11.3-0.2-22.4-1.7-30.2-7.9
	C192,198,197.5,166.6,194.6,129.3"/>
<path class="st2" d="M146.4,141.9L146.4,141.9c8.1-6.9,21.5-10.3,26.3-10.2c3.8,33.1-4,58.4-22.8,78.2c-6.5-3.8-13.8-11.5-19.5-22.2
	C141.5,178.2,148,154.3,146.4,141.9"/>
<path class="st2" d="M77.7,105.3L77.7,105.3c-6.2-15.1-30.8-26.1-48.4-29C14.6,74,2.1,85.5,0.2,75.5s12.7-4.5,31.6-2.3
	c14.9,1.8,31,9.6,43.8,20.8C66,73.5,60,59.3,46.2,47.8c-17.8-14.8-26.6-8.3-24-19.5c8.1-10.4,7.6,0.8,25.3,15.1
	c7.2,5.8,25.9,27.9,33.5,60.1C79.8,104.4,79.8,104.4,77.7,105.3"/>
<path class="st1" d="M103.4,104.8c-69.3,3.7-18.5,151.8,26.4,66.5l0,0C146.3,140,136.3,103.9,103.4,104.8 M101.5,138.3
	c-3.2,9.3-11.5,15.6-18.5,14s-10.2-10.5-7-19.8s11.5-15.6,18.5-14S104.6,129,101.5,138.3"/>
<path class="st2" d="M145.3,129.4c2.8-12.8,4.1-23.4,3.9-31.8S147.3,79.3,144,68l-1.4-4.8c-4.3-14.6-4-27,0.9-37.3
	c5.1-11,14.6-19.5,26.2-23.2c24-8.4,50.2,4.1,58.8,28c4.3,12,3.8,23.6-1.6,34.9C222,75.9,212.5,84,198.4,89.8l-4.6,2
	c-10.8,4.5-19.6,9.4-26.2,14.6C160.9,111.5,153.5,119.2,145.3,129.4"/>
</svg>
