<svg id="b0f37409-1478-41af-8b35-df197d1f82fa" data-name="Layer 1" xmlns="http://www.w3.org/2000/svg" width="800" height="370.69" viewBox="0 0 800 370.69"><path d="M1012.16,721.79V671.63q0-11.89-3-16.43c-2-3-5.42-4.57-10.28-4.57q-9.06,0-12.68,6.32c-2.36,4.25-3.52,12.83-3.52,25.9v38.94H951.41V671.63c0-8-.93-13.59-2.92-16.53s-5.29-4.47-10.14-4.47c-6.05,0-10.31,2.08-12.71,6.23s-3.65,12.84-3.65,26v38.94H890.51V630h31.86v13.33c3.83-6.48,8.22-8.64,13.22-11.7A33,33,0,0,1,953.26,627q11.19,0,18.33,4.34a24.09,24.09,0,0,1,10.2,13,36,36,0,0,1,13.1-13,37,37,0,0,1,18.19-4.31,35.63,35.63,0,0,1,14.49,2.78,26,26,0,0,1,10.43,8.35,27.38,27.38,0,0,1,4.78,10.2c1,3.87,1.4,10.17,1.4,18.88v54.62Z" transform="translate(-560 -354.66)" fill="#231f20"/><path d="M853.38,630v13.77c-3.55-6.14-7.85-9.37-12.84-12.3A34.55,34.55,0,0,0,822.62,627q-19.43,0-30.92,13.23c-7.66,8.84-11.53,20.74-11.53,35.73s3.67,27.06,11,36,17.12,13.42,29.37,13.42a37.84,37.84,0,0,0,18.7-4.44c5.32-3,10.06-6.33,14.3-12.68V721.8H883.4V630Zm-5.56,62.72c-3.83,4.14-7.71,6.19-14.32,6.19s-11.77-2-15.58-6.19-5.7-9.76-5.7-16.92,1.9-12.88,5.67-17,9-6.25,15.61-6.25,10.49,2.09,14.32,6.3,5.7,9.83,5.7,17-1.89,12.8-5.7,16.92" transform="translate(-560 -354.66)" fill="#231f20"/><path d="M771.93,657.17a48.57,48.57,0,0,0-11.31-16.09,49.16,49.16,0,0,0-16.45-10.57,57.22,57.22,0,0,0-39.68,0,48.91,48.91,0,0,0-27.56,64.58A47.24,47.24,0,0,0,688,711a49.36,49.36,0,0,0,16.53,10.74,55,55,0,0,0,39.39,0A51.16,51.16,0,0,0,760.62,711a48.37,48.37,0,0,0,11.23-16,46.35,46.35,0,0,0,3.92-18.86,47.71,47.71,0,0,0-3.84-18.91m-33.54,35.1q-5.14,5.85-14.06,5.86c-6,0-10.7-2-14.09-5.86s-5.08-9.31-5.08-16.19,1.7-12.22,5.13-16.17,8.12-5.92,14-5.92,10.56,2,14,5.92,5.19,9.35,5.19,16.17-1.71,12.26-5.13,16.19" transform="translate(-560 -354.66)" fill="#231f20"/><path d="M605.92,721.79V630h30.55v19c3.18-7.91,7.46-11.19,12.94-15.13s12.06-5.91,19.83-5.91c1.28,0,2.56,0,3.87.11s2.63.26,3.95.45l-3.17,29.41a34.88,34.88,0,0,0-5.72-1.42,35.56,35.56,0,0,0-5.45-.43q-11.79,0-18.19,7.23t-6.39,20.49v38Z" transform="translate(-560 -354.66)" fill="#231f20"/><path d="M1360,680.75c0-16.69-4.43-29.81-13.19-39.39S1326,627,1310.79,627q-22.15,0-36.69,14.2t-14.48,35.66q0,21.85,14.51,35.17c9.65,8.9,22.53,13.34,38.55,13.34,10.72,0,19.8-1.94,27.2-5.76s12.54-9.24,15.46-16.31L1331,693.48a18.16,18.16,0,0,1-7.68,8.21,25.56,25.56,0,0,1-12.46,2.79c-6.52,0-11.6-1.94-15.2-5.79s-5.41-9.31-5.48-16.39H1360ZM1290.87,664c1.06-5.76,3.15-10.11,6.23-13s7.34-4.32,12.67-4.32a17.47,17.47,0,0,1,12.42,4.78,19.62,19.62,0,0,1,5.94,12.54Z" transform="translate(-560 -354.66)" fill="#fdb933"/><path d="M1256.34,680.75q0-25-13.19-39.39c-8.77-9.61-20.81-14.39-36-14.39q-22.19,0-36.69,14.2T1156,676.83q0,21.85,14.49,35.17T1209,725.34c10.71,0,19.81-1.94,27.2-5.76s12.54-9.24,15.43-16.31l-24.34-9.79a18.26,18.26,0,0,1-7.7,8.21,25.47,25.47,0,0,1-12.47,2.79q-9.78,0-15.19-5.79c-3.56-3.86-5.38-9.31-5.46-16.39h69.84ZM1187.24,664c1-5.76,3.12-10.11,6.22-13s7.36-4.32,12.64-4.32a17.44,17.44,0,0,1,12.42,4.78,19.54,19.54,0,0,1,6,12.54Z" transform="translate(-560 -354.66)" fill="#fdb933"/><path d="M1140.88,640.49Q1129.44,627,1111.1,627c-7.82,0-14.19,1.41-19,4.22s-8.32,6.18-12.08,12.7c.29-1.86,0-63.09,0-63.09h-30.9v141h29.78V709.53c4.17,6.19,8.8,8.14,14,11.2a32.66,32.66,0,0,0,17.16,4.61c12.84,0,23.1-4.49,30.78-13.39s11.5-20.92,11.5-36c0-14.61-3.8-26.46-11.39-35.44m-26.51,52.41c-3.74,4.1-8.94,6.19-15.53,6.19s-10.4-2.09-14.11-6.2-5.6-9.77-5.6-16.92,1.86-12.81,5.6-16.92,7.56-6.18,14.11-6.18,11.74,2,15.53,6.18S1120,668.83,1120,676s-1.9,12.84-5.65,16.93" transform="translate(-560 -354.66)" fill="#fdb933"/><path d="M808,502.05h0c10.91,3.11,23.83,20.34,24.75,37.46l48.64,27-55.16-5.79c-7.8,10.49-21.5,18.19-35.52,21.74C803,562.3,812.13,538.22,808,502.05" transform="translate(-560 -354.66)" fill="#fdb933" fill-rule="evenodd"/><path d="M754.59,484h0c9.13-.59,23.33,1.35,28.84,5.43,5.3,29,1.3,66.81-24.35,94.26-11.32-.17-22.43-1.73-30.25-7.87,23.2-23.17,28.62-54.61,25.76-91.82" transform="translate(-560 -354.66)" fill="#fdb933" fill-rule="evenodd"/><path d="M706.44,496.6h0c8.12-6.93,21.49-10.27,26.32-10.21,3.85,33.07-4,58.41-22.83,78.2-6.54-3.75-13.79-11.53-19.45-22.23,11-9.47,17.56-33.36,16-45.76" transform="translate(-560 -354.66)" fill="#fdb933" fill-rule="evenodd"/><path d="M637.7,460h0c-6.25-15.06-30.82-26.12-48.37-28.95-14.7-2.35-27.22,9.08-29.16-.89s12.7-4.55,31.63-2.28c14.92,1.78,31,9.62,43.8,20.77C626,428.13,620,413.92,606.16,402.43c-17.84-14.81-26.62-8.34-24-19.55,8.12-10.43,7.57.75,25.32,15.07,7.17,5.78,25.93,27.91,33.5,60.15-1.2,1-1.23,1-3.27,1.85" transform="translate(-560 -354.66)" fill="#fdb933" fill-rule="evenodd"/><path d="M663.39,459.44c-69.27,3.73-18.46,151.78,26.41,66.48h0c16.47-31.3,6.49-67.35-26.42-66.48M661.47,493c-3.2,9.32-11.48,15.57-18.53,14s-10.18-10.48-7-19.79,11.49-15.58,18.52-14,10.16,10.47,7,19.8" transform="translate(-560 -354.66)" fill="#fdb933"/><path d="M705.3,484.09c2.82-12.78,4.07-23.36,3.87-31.8S707.27,434,704,422.7l-1.4-4.82q-6.45-21.9.86-37.27a43.78,43.78,0,0,1,26.16-23.23,46.14,46.14,0,0,1,58.79,28q6.51,18-1.58,34.94c-4.86,10.25-14.37,18.31-28.41,24.15l-4.64,1.95q-16.24,6.82-26.24,14.57T705.3,484.09" transform="translate(-560 -354.66)" fill="#fdb933" fill-rule="evenodd"/></svg>