<?xml version="1.0" encoding="utf-8"?>
<!-- Generator: Adobe Illustrator 26.3.1, SVG Export Plug-In . SVG Version: 6.00 Build 0)  -->
<svg version="1.1" id="b0f37409-1478-41af-8b35-df197d1f82fa"
	 xmlns="http://www.w3.org/2000/svg" xmlns:xlink="http://www.w3.org/1999/xlink" x="0px" y="0px" viewBox="0 0 321.4 229"
	 style="enable-background:new 0 0 321.4 229;" xml:space="preserve">
<style type="text/css">
	.st0{fill-rule:evenodd;clip-rule:evenodd;fill:#FDB933;}
	.st1{fill:#FDB933;}
</style>
<path class="st0" d="M248,147.4L248,147.4c10.9,3.1,23.8,20.3,24.8,37.5l48.6,27l-55.2-5.8c-7.8,10.5-21.5,18.2-35.5,21.7
	C243,207.6,252.1,183.6,248,147.4"/>
<path class="st0" d="M194.6,129.3L194.6,129.3c9.1-0.6,23.3,1.4,28.8,5.4c5.3,29,1.3,66.8-24.3,94.3c-11.3-0.2-22.4-1.7-30.2-7.9
	C192,198,197.5,166.6,194.6,129.3"/>
<path class="st0" d="M146.4,141.9L146.4,141.9c8.1-6.9,21.5-10.3,26.3-10.2c3.8,33.1-4,58.4-22.8,78.2c-6.5-3.8-13.8-11.5-19.5-22.2
	C141.5,178.2,148,154.3,146.4,141.9"/>
<path class="st0" d="M77.7,105.3L77.7,105.3c-6.2-15.1-30.8-26.1-48.4-29C14.6,74,2.1,85.5,0.2,75.5s12.7-4.5,31.6-2.3
	c14.9,1.8,31,9.6,43.8,20.8C66,73.5,60,59.3,46.2,47.8c-17.8-14.8-26.6-8.3-24-19.5c8.1-10.4,7.6,0.8,25.3,15.1
	c7.2,5.8,25.9,27.9,33.5,60.1C79.8,104.4,79.8,104.4,77.7,105.3"/>
<path class="st1" d="M103.4,104.8c-69.3,3.7-18.5,151.8,26.4,66.5l0,0C146.3,140,136.3,103.9,103.4,104.8 M101.5,138.3
	c-3.2,9.3-11.5,15.6-18.5,14s-10.2-10.5-7-19.8s11.5-15.6,18.5-14S104.6,129,101.5,138.3"/>
<path class="st0" d="M145.3,129.4c2.8-12.8,4.1-23.4,3.9-31.8S147.3,79.3,144,68l-1.4-4.8c-4.3-14.6-4-27,0.9-37.3
	c5.1-11,14.6-19.5,26.2-23.2c24-8.4,50.2,4.1,58.8,28c4.3,12,3.8,23.6-1.6,34.9C222,75.9,212.5,84,198.4,89.8l-4.6,2
	c-10.8,4.5-19.6,9.4-26.2,14.6C160.9,111.5,153.5,119.2,145.3,129.4"/>
</svg>
